<svg xmlns="http://www.w3.org/2000/svg" height="305.5" viewBox="0 0 252.72063 305.50259" width="252.72"><g transform="matrix(1.25 0 0 -1.25 -258.13 643.25)"><g transform="matrix(.32512 0 0 .32512 208.27 265.07)"><path d="m386.04 47.889v295.62h61.885v-295.62h-61.885zm250.94 312.81v60.164h115.16v-60.164h-115.16zm-625.63 63.59v63.592h125.48v-63.592h-125.48zm305.94 140.95v349.21l54.539 34.074h7.3476v-383.28h-61.887z" transform="matrix(.8 0 0 -.8 0 792)" fill="#e31837"/><path d="m11.283 48.447v309.46h301.49v-309.46h-301.49zm435.84 440.13v426.86s65.614-46.569 114.3-87.48c48.689-40.928 107.24-119.25 136.87-172.88 29.628-53.63 51.512-166.5 51.512-166.5h-302.69z" transform="matrix(.8 0 0 -.8 0 792)" fill="#0054a4"/><path d="m306.08 754.57h298.75v-298.82c0-81.281-32.27-192.45-99.335-271.56-86.74-102.32-199.5-156.37-199.5-156.37s-112.77 54.047-199.49 156.37c-67.065 79.114-99.348 190.28-99.348 271.56v298.82h298.91z" stroke="#000" stroke-miterlimit="3.864" stroke-width="14.344" fill="none"/><path d="m251.02 754.63v-693.34m108.01 693.34v-693.34m-354.25 444.66h600.04m-600.04-52.6h600.04m-600.04-52.594h600.04m-298.39 355.07v-724.43" stroke="#000" stroke-miterlimit="1" stroke-width="14.344" fill="none"/><g><path d="m83.818 720.76c-25.652-15.09-42.865-42.96-42.865-74.86 0-47.927 38.849-86.764 86.776-86.764 47.914 0 86.764 38.836 86.764 86.764 0 31.926-17.238 59.836-42.929 74.906 13.515-12.062 21.994-29.606 21.994-49.138 0-36.35-29.478-65.828-65.828-65.828-36.363 0-65.828 29.478-65.828 65.828 0 19.495 8.4532 37.026 21.917 49.088z" stroke="#000" stroke-miterlimit="1" stroke-width="5.9798" fill="#fff"/><g><path d="m105.05 510.78c1.3387-23.116 2.4862-35.05 1.8105-57.464-0.4718-15.682-3.264-24.454-2.958-40.15 0.2294-12.049 1.8615-18.755 2.7667-30.753 0.7267-9.6008 0.2422-15.096 1.4025-24.658 1.326-10.965-1.9635-19.61 5.4442-27.82 5.5846-6.1837 11.042-8.3895 19.355-9.078 3.5317-0.2805 5.5207 0.4207 9.0652 0.612 21.675 1.173 33.94-1.02 55.654-1.1985 14.14-0.1275 22.134 0.1275 36.287 0 9.1927-0.102 14.382-0.4972 23.588-0.612 9.6644-0.1275 15.746 3.4043 24.799 0 4.3477-1.6448 6.069-4.0672 10.276-6.0563 6.426-3.0344 10.34-9.5625 16.906-6.8084 2.55 1.0709 3.5445 2.499 5.5463 4.4369 3.213 3.0983 4.08 5.9161 7.7902 8.4278 7.1145 4.794 13.209 2.7795 21.777 3.0217 10.672 0.2806 16.142-2.8814 27.221-3.0217 10.901-0.153 21.662-0.1658 35.624-0.1147 16.537 0.0765 25.959-0.1785 42.394-0.4973 18.373-0.3442 31.34-4.1182 46.563 6.0435 4.7303 3.1748 7.7903 4.9215 10.901 9.6773 5.4187 8.3512 1.8232 15.478 2.4097 25.411 1.1602 19.558-1.4407 30.638-0.612 50.197 0.6248 14.191-0.4463 23.562 3.0472 36.299 3.6975 13.553 1.2623 21.56 0.9436 36.019-0.459 20.451 0 45.428-5.7885 51.676-3.9653 4.2712-8.2111 4.2968-13.91 5.4443-10.774 2.1547-13.426 12.431-21.305 11.577-15.224-1.6574-35.139-8.9504-60.346-10.366-37.166-2.1037-42.356 5.1255-62.373 5.6482-12.878 0.3443-13.579-0.5482-26.546-7.4715-5.7758-3.0727-8.5935-6.8084-15.122-7.2419-7.599-0.51-10.876 4.947-18.143 7.2419-16.129 5.1001-26.036 5.4443-42.942 6.0563-18.436 0.663-28.764-2.3332-47.175-3.6337-11.794-0.8288-18.437-2.0145-30.243-1.8105-9.2309 0.153-14.994 5.1764-23.588 1.8105-3.0472-1.1858-4.2074-3.0345-7.2547-4.2331-5.7375-2.2312-9.9195 0.8033-15.734-1.1985-6.2347-2.1674-10.251-4.1819-13.91-9.69-3.4808-5.2402-3.9908-9.435-3.621-15.721" stroke="#000" stroke-miterlimit="3.86" stroke-width="1.1096"/><path d="m578.91 312.81c-7.9072-0.24928-9.9522 3.3833-29.324 5.7012-24.703 2.9485-38.839 3.4749-63.701 3.459-19.492 0-30.568-4.4792-49.916-2.1524-14.631 1.769-26.313 2.0715-36.656 9.084-7.1879 4.861-7.7458 11.555-9.7539 20.002-1.801 7.65-0.4136 12.289-0.63672 20.162-1.9126 65.615-2.0738 102.67-0.70313 168.28 0.6215 5.0362-0.0473 9.9605 5.5469 11.777 9.5625 3.0919 21.022-4.7959 34.617-6.9316 30.218-4.7334 47.699-5.2601 78.268-4.8457 20.83 0.28675 30.777 2.694 53.328 3.459 10.168 0.35062 18.423-1.3222 24.24-9.6895 4.3668-6.3112 3.4271-11.715 3.459-19.396 0.30287-70.715 2.0723-186.98 2.0723-186.98 0.0478-4.6219 0.38172-10.2-4.1445-11.076-2.7343-0.53491-4.8706-0.79989-6.6953-0.85742zm-386.22 6.3828c-1.8917-0.0242-3.74 0.40149-5.6465 1.7402-5.8809 4.1438-4.1445 10.79-4.1445 18.01v168.99c-0.0478 10.646-0.82788 16.909 5.5312 24.225 6.12 7.0444 12.829 9.0518 22.168 9.0039 14.152-0.0638 27.03-0.98664 44.322-1.3691 29.708-0.68538 45.996-3.905 76.182-1.3867 16.575 1.3706 24.528 6.8366 41.549 9.6894 5.2754 0.8765 9.7373-4.3504 9.6894-9.6894-0.3985-56.53 1.2926-171.06-2.0703-184.22-0.0956-8.2556-0.49476-13.754-5.2441-20.512-7.4109-10.551-18.233-9.0669-30.775-12.031-20.751-4.9246-33.628-0.781-54.713 0 0 0-32.976 1.1459-54.014 2.7715l-32.543-3.4746c-3.8648-0.40836-7.1382-1.6999-10.291-1.7402z" transform="matrix(.8 0 0 -.8 0 792)" fill="#fff"/><path d="m350.39 359.4c-6.9328 4.5581-14.408 13.705-14.408 23.283 0 4.5581 1.5929 10.106 4.2226 14.855 3.6975 6.6779 5.5312 11.761 5.5312 15.889 0 6.0722-2.6296 10.36-6.6777 13.707l4.3027 4.3027c6.2475-3.6019 16.002-11.333 16.002-25.74-0.00001-5.1-1.6749-10.884-4.3047-15.824-2.9006-5.4346-5.0195-9.8346-5.0195-13.691 0-3.1556 0.7974-5.0209 1.7695-6.3438l2.8047 1.8652 4.0488-4.0469-8.2715-8.2559zm179.89 0.74804c-8.7019 0-17.309 6.5835-17.309 19.859v18.98h-2.1992v5.7051h2.1992v18.441h-2.1992v5.7207h15.363v-24.162h8.3672v24.162h15.443v-5.7207h-2.2793v-43.127c0-13.276-8.6848-19.859-17.387-19.859zm-99.1 0.43164c-10.551 0-17.564 7.4739-17.564 19.857v42.697h-2.1992v5.7207h15.363v-55.717c0-4.3829 1.8495-6.8379 4.1445-6.8379 2.2631 0 4.207 2.455 4.207 6.8379v55.717h13.164v-55.717c0-4.3829 1.9455-6.8379 4.2246-6.8379 2.2949 0 4.1445 2.455 4.1445 6.8379v55.717h15.363v-5.7207h-2.1992v-42.697c0-12.384-7.0135-19.857-17.58-19.857-4.3829 0-8.1604 2.0227-10.535 3.9512-2.3588-1.9285-6.1344-3.9512-10.533-3.9512zm60.881 0.44532c-4.3988 0-8.1769 0.70203-10.807 3.3476-2.6296 2.6298-3.3301 6.7568-3.3301 10.789v23.826h-2.1992v5.7051h2.1992v10.01c0 4.0481 0.70045 8.1751 3.3301 10.805 2.6298 2.6456 6.4079 3.3477 10.807 3.3477h14.662v-10.104h-5.7051l-0.33594 4.3828h-3.0918c-2.6296 0-3.7759-0.52775-4.748-1.5-0.95638-0.95625-1.4824-2.0868-1.4824-4.7324v-12.209h10.359v-5.7051h-10.359v-26.01c0-2.6296 0.52604-3.7938 1.4824-4.75 0.97212-0.97225 2.1184-1.498 4.748-1.498h2.0254l0.3496 4.3984h5.7051v-10.104h-13.609zm-275.21 0.47851v5.7051h2.1992v56.402h-2.1992v5.7227h11.428c13.435 0 25.117-5.5473 25.117-33.916s-11.682-33.914-25.117-33.914h-11.428zm57.725 0c-4.3988 0-8.1747 0.70008-10.82 3.3457-2.6298 2.6298-3.332 6.7585-3.332 10.807v23.811h-2.1992v5.7051h2.1992v10.01c0 4.0481 0.70228 8.1751 3.332 10.805 2.6456 2.6456 6.4216 3.3477 10.82 3.3477h14.664v-10.105h-5.707l-0.34961 4.3828h-3.0762c-2.6456 0-3.7779-0.52617-4.75-1.4824-0.97225-0.97225-1.4824-2.1024-1.4824-4.748v-12.209h10.359v-5.7051h-10.359v-26.01c0-2.6298 0.51017-3.7778 1.4824-4.75 0.97213-0.95625 2.1044-1.498 4.75-1.498h2.0234l0.35156 4.3984h5.7051v-10.104h-13.611zm18.711 0v5.7051h2.1992v43.143c0 13.26 8.607 19.859 17.293 19.859 8.7019 0 17.404-6.5992 17.404-19.859v-43.143h2.2793v-5.7051h-15.461v56.131c0 4.0481-1.9276 6.8691-4.2226 6.8691-2.2791 0-4.1113-2.821-4.1113-6.8691v-56.131h-15.381zm236.99 4.3496c2.279 0 4.2226 2.8054 4.2226 6.8535v26.281h-8.3672v-26.281c0-4.0481 1.8495-6.8535 4.1445-6.8535zm-298.05 1.8027c4.1279 0 6.6777 5.9751 6.6777 27.762 0 21.786-2.5499 27.764-6.6777 27.764v-55.525zm227.14 67.543c-6.9486 4.5581-14.424 13.689-14.424 23.283 0 4.5582 1.5929 10.106 4.2227 14.855 3.6974 6.6779 5.5312 11.761 5.5312 15.889 0 6.0721-2.6296 10.36-6.6777 13.707l4.3027 4.3027c6.2475-3.6019 15.984-11.333 15.984-25.74 0-5.1-1.6575-10.884-4.2871-15.824-2.9-5.43-5.02-9.83-5.02-13.69 0-3.1556 0.79728-5.0209 1.7695-6.3438l2.8047 1.8652 4.0312-4.0469-8.2383-8.2559zm-211.51 1.0664v5.7227h2.1992v56.402h-2.1992v5.7051h31.189v-16.701h-5.7051l-1.9277 10.996h-8.1758v-56.402h2.1992v-5.7227h-17.58zm33.391 0v5.7227h2.1992v43.143c0 13.26 8.6048 19.842 17.307 19.842 8.702 0 17.389-6.5818 17.389-19.842v-43.143h2.2793v-5.7227h-15.459v56.148c0 4.0481-1.9299 6.8691-4.209 6.8691-2.279 0-4.127-2.821-4.127-6.8691v-56.148h-15.379zm42.6 0v5.7227h2.1992l8.877 29.787-9.7539 26.615h-2.1992v5.7051h7.6504l7.6504-21.164 6.3281 21.164h14.311v-5.7051h-2.1992l-9.5781-32.258 8.7012-24.145h2.1992v-5.7227h-7.7441l-6.4863 18.553-5.5312-18.553h-14.424zm103.42 1.0371c-4.3829 0-8.1751 0.70008-10.805 3.3457-2.6298 2.6298-3.3301 6.7585-3.3301 10.807v23.811h-2.1836v5.7051h2.1836v10.01c0 4.0481 0.70033 8.1749 3.3301 10.805 2.6296 2.6456 6.4218 3.3477 10.805 3.3477h14.68v-10.105h-5.7051l-0.35157 4.3828h-3.0762c-2.6298 0-3.7939-0.52617-4.75-1.4824-0.97225-0.97212-1.498-2.1024-1.498-4.748v-12.209h10.359v-5.7051h-10.359v-26.01c0-2.6298 0.52579-3.7778 1.498-4.75 0.95613-0.97213 2.1202-1.498 4.75-1.498h2.0234l0.33594 4.3984h5.7207v-10.104h-13.627zm43.766 0v14.502h5.7207l1.1484-8.7969h4.9883v56.402h-2.6308v5.7227h18.457v-5.7227h-2.6465v-56.402h5.0215l1.1309 8.7969h5.7207v-14.502h-36.91z" transform="matrix(.8 0 0 -.8 0 792)"/><path d="m617.79 325.73c-0.29751-0.008-0.61166 0.0127-0.94336 0.0645-3.2831 0.494-6.3118 2.55-6.248 5.8809 0.31875 12.383-0.0159 17.963 0 29.422l-1.418 160.33c0 3.2991 3.6652 4.9891 6.9961 4.8457 2.6456-0.0956 4.3024-1.3557 5.8164-3.5391 1.8329-2.6456 1.6744-5.1468 0.75-8.2227-0.66938-2.1994-2.7892-2.6624-3.1719-4.9414-0.39837-2.295 0.92397-3.5218 1.418-5.8008 0.8925-4.0322 1.8169-6.2627 2.0879-10.391 0.28675-4.1756-0.31892-6.5668-0.68555-10.727-0.17525-1.9124-0.98804-2.9652-0.70117-4.8457 0.3825-2.3588 2.2316-3.0601 3.0762-5.2754 1.9604-5.1319 3.0756-9.768-0.2871-14.135-1.8648-2.3908-2.613-17.644-5.3223-17.963 2.3428-13.356 2.9647-23.588 4.2715-25.994 3.2991-6.0721 0.97104-10.757 1.0508-17.674 0.0319-6.7894 0.35157-10.679-0.74805-17.389-0.73313-4.3349-2.3278-6.5815-2.7422-10.996-0.43037-4.9885 0.54249-7.826 1.0684-12.814 0.71725-7.1878 4.4459-11.507 2.4219-18.344-1.4643-4.8261-2.2267-11.375-6.6895-11.492zm-463.69 11.826c-4.1916 0.71713-6.7741 14.79-6.3438 19.014 0.19112 1.8169 0.76655 9.9447 1.4199 11.268-5.0044 1.5938-0.81408 12.209-0.83008 18.553-0.0159 4.8609-0.92475 22.551 0.8125 32.688-2.2472 1.8965-2.8201 6.3906-2.5332 9.8809 0.239 3.0919 1.1313 6.838 3.1074 8.5273-0.3665 5.1638-0.65265 10.438-1.0352 11.92-2.4702 9.6104-1.7852 16.895-1.7852 27.637 0 3.1396 1.4984 15.984 3.9688 22.693-0.797 2.5341-0.52602 6.2161-0.49414 9.1484 0.0479 4.4148-0.92477 10.902 3.5059 10.807 4.319-0.0639 3.474-6.0732 3.8086-10.408 0.30288-3.9206 1.2282-9.2121-0.74805-11.443 1.3229-7.3471 1.2902-19.171 1.4336-22.104l-0.68555-88.645 0.0957-21.611c1.4344-4.4784 0.92448-28.705-3.6973-27.924zm457.27 194.39c-0.34938 0.007-0.71133 0.0473-1.0898 0.125-4.3669 0.90838-3.0603 6.3597-3.873 10.727-0.87663 4.9407 3.793 9.5454 0 12.812-2.3748 2.0879-4.7984 1.1485-7.9062 1.7383-8.0165 1.4662-12.669 1.5144-20.766 2.0723-12.67 0.8925-21.149-4.877-32.561 0.70117-3.315 1.6098-7.3154-1.1159-7.9688 5.1953-0.73313 7.8731 10.01 5.099 16.975 6.2305 7.7296 1.2432 12.24-1.7844 20.033-1.1309 4.7971 0.41437 7.346 2.5341 12.111 2.0879 4.7334-0.43025 6.6941-4.1123 11.443-4.1602 3.4585-0.0319 5.1802 2.4548 8.6387 2.0723 1.8486-0.17538 2.8995-0.4939 4.541-1.3066 3.8888-1.9284 5.1646-4.702 6.9336-8.6387 2.0241-4.4944 1.8001-7.5701 1.7363-12.463-0.0638-4.9725 1.3234-8.9888-2.1191-12.543-1.8965-1.9662-3.6832-3.5666-6.1289-3.5195zm-453.75 5.7188c-4.4148 0.14338-6.2308 4.9899-5.8164 9.3887 0.31875 3.3309-1.323 16.144 2.2949 18.789-0.0958 0.44637 7.5218 2.6149 7.4102 3.0293-1.2909 4.7972 6.8067 4.5731 11.779 4.8281 4.4465 0.23912 9.4666 1.3875 11.076-2.7402 0.0637-0.19125 0.0167-0.31914 0.0645-0.47851l3.6973 0.7168c0.28688 5.6419 8.2716 3.2993 13.85 4.1758 8.7019 1.3706 10.725-0.71689 22.551-1.3066 3.1556-0.17525 4.9888-5.3879 2.7734-7.6191-1.785-1.817-10.535-2.1823-17.309-1.752l-43.207-2.3594c-0.94038-0.749-1.6717-0.78127-2.2774-0.47852-0.3665-3.1078-1.1166-6.6932-1.2441-8.7012-0.255-4.08-1.5307-15.604-5.6426-15.492zm366.55 22.443c-2.7365-0.12641-5.9037 1.1627-9.1211 1.8301-3.6974 0.765-5.324 4.224-9.0215 3.459-1.9922-0.41437-2.6763-1.6891-4.541-2.502-6.2156-2.6775-10.647-2.6461-17.309-1.3711-3.6656 0.68537-5.2925 3.0438-9.0059 3.1074-3.841 0.0319-5.5623-3.729-9.3555-3.1074-3.8888 0.65337-7.967 2.2782-7.9512 6.2148 0.016 4.2712 5.1155 5.7063 9.3867 5.6426 24.177-0.43038 32.162 1.6412 55.064 0.31836 3.9525-0.22313 7.9051-1.9926 8.2559-5.9609 0.20713-2.2472-0.59101-3.6965-2.0254-5.4336-1.2491-1.536-2.7351-2.1214-4.377-2.1973zm-90.09 1.2617c-2.8154 0.0217-5.4444 1.2341-8.7754 2.2422-5.084 1.4821-12.622 1.0199-12.064 6.2793 0.46213 4.367 4.9886 6.7102 9.3555 6.248 7.2038-0.76512 8.6053-0.0815 13.498-0.70312 4.351-0.52588 9.02-3.2663 8.3027-7.6172-0.526-3.2512-3.2512-4.3345-6.2793-5.6094-1.4394-0.61261-2.7574-0.8497-4.0371-0.83984zm-108.16 2.8008c-4.6196-0.0418-8.1153 0.76135-6.1699 4.0156 3.06 5.1 11.38 7.5387 19.381 8.6543 5.0521 0.70125 11.14-1.8332 11.092-6.9492-0.0639-5.594-7.9534-4.2241-13.516-4.8457-2.9215-0.29979-7.1941-0.84248-10.787-0.875zm61.342 0.20508c-4.2872-0.19112-7.2669 3.65-7.6016 7.9531-0.3825 4.4784 2.3746 9.0842 6.8691 9.2754 4.4944 0.17525 7.6163-4.0795 7.6641-8.5898 0.0478-4.3349-2.5966-8.4793-6.9316-8.6387zm-82.641 0.0156c-3.8808 0.006-8.7214 0.98199-12.57 1.0059l-46.441-0.0801c-3.6019 0.494-7.7943 0.00068-8.623 3.5547-0.95625 4.08 4.8939 5.0361 9.0059 5.8809 4.0002 0.82875 7.9366 1.3372 10.471-1.5156 6.375 4.3191 29.898 2.534 36.975 2.1992 7.4109-0.35063 18.01 1.2124 17.994-6.2305-0.008-3.8569-2.9298-4.8204-6.8106-4.8145z" transform="matrix(.8 0 0 -.8 0 792)" fill="#ffef0c"/></g></g></g></g></svg>
