<svg xmlns="http://www.w3.org/2000/svg" viewBox="0 0 1499.76 432.59">
    <path d="M1198.62 221.48c-8.11-6.55-20.4 15.11-40.4 21.52-5.77 1.85-10.82-2.09-13.06-7.04l-7.54-16.65c-2.45-5.4-9.46-5.84-14.07-2.66l-16.37 11.3c-9.99 6.9-35.2 5.09-40.97-2.99l-10.42-14.58c-.92-1.29-4.19-3.09-5.76-3.23-1.76-.15-4.78 1.93-6.04 3.6l-9.53 12.64c-4.32 5.73-11.29 8.55-16.5 13.57-7.79 7.5-17.37 15.52-28.63 14.7-9.08-.66-16.35-6.62-21.96-12.76-2.07-2.27-4.42-3.06-7.12-1.95-16.19 6.65-32.46 14.9-49.62 12.61-3.5-.47-8.37-1.43-11.33-2.74l-27.25-12.04c-3.43-1.52-9.72 2.29-11.66 5.33l-9.47 14.82c-3.31 5.19-8 8.34-14.27 9.85-9.32 2.24-21.51 4.93-29.73-1.63-6.66-5.31-6.95-16.93-5.05-24.52l6.96-27.86c1.06-4.23.37-10.72-.54-15.09-1-4.74-8.24-4.45-11.45-3.16-16.63 6.69-34.26-2.81-42.86 3.06-4.82 3.29-9.02 6.48-13.49 9.91-.86 11.23-4.03 20.52-8.38 30.48s-.85 15.4-9.15 23.82c-2.86 2.9-6.35 5.13-10.55 4.38-14.18-2.52-11.51-34.43-10.47-44.84 1.44-14.34 4.88-28.41 13.19-40.48 2.25-3.26 6.48-8 10.58-7.96 10.11.09 10.4 16.26 24.11 12.65l15.68-4.13c24.35 1.01 46.91-7.06 64.32-23.88 16.51-15.95 17.73-27.74 32.46-34.63 9.66-4.52 15.68 9.02 28.74-15.09l15.72-29.04c2.79-5.15 6.56-11.09 13.68-9.65s10.27 11.29 9.75 17.13c-2.93 32.87-14.06 47.13-17.34 64.38-1.38 7.26-4.42 13.33-8.6 19.31-5.67 8.11-10.3 16.65-14.62 25.6-2.91 6.01-2.83 12.58-1.12 19.05 1.94 7.33 8.04 13.93 16.09 13.96l20.12.06c16.6.05 18.52-12.15 35.92-7.6 3.13-.12 7.65-4.9 9.49-8.02l26.71-45.12c6.17-10.42 13.9-17.22 24.36-23.08s20.52-9.51 33.03-6.79c2.8.61 7.12-2.87 8.38-5.5 11.15-23.32 7.77-24.21 23.87-48.07 6.44-9.55 12.28-19.38 22.29-26 3-1.99 9.55 2.04 10.27 5.39 4 18.6-6.72 39.8-14.41 57.59-2.78 6.44-4.46 14.18-8.36 19.87-11.82 17.25-21.78 27.8-19.07 51.32.69 5.98 1.24 11.43 3.59 17.19 2.12 5.21 14.06.31 19.15-2.93 5.8-3.69 11.67-5.75 18-8.32 8.84-3.59 15.96-10.51 23.93-15.64 22.6-14.52 16.65-24.57 35.37-36.83 8.95-5.86 18.88-10.18 27.69-3.56s.65 13.87 13.89 19.61c5.12 2.22 7.28 6.01 7.01 11.38l-1.03 20.11c-.21 4.11.8 9.15 1.68 13.28 3.78 4.14 19.16-6.82 22.49-10.02 5.12-4.92 10.35-9.78 14.73-15.25l7.61-9.49c1.94-2.41 4.44-4.97 6.7-6.85 7.27-6.04 15.74-4.23 21.66 2.17 13.54 14.63-2.76 18.5 3.49 32.38l7.6 16.89c24.19 5.12 31.12 3.14 42.75-15.97 5.24-8.61 11.05-15.45 17.59-22.95 7.76-8.9 14.69-17.84 25.8-23.1 6.85-3.25 16.74-5.23 23.47-1.08 4.81 2.96 3.05 9.96 3.98 15.98 10.24-4.7 18.05-13.01 23.4-22.84l12.83-23.58c5.1-9.37 10.04-18.34 14.67-27.97 2.15-4.48 4.65-8.29 8.57-11.66 2.24-1.93 7.76-2.78 9.53.38 1.94 3.47 1.4 9.47-.32 13.05-3.51 7.31-5.93 13.96-8.54 21.51-1.65 4.77-4.59 9.4-6.57 14.18-3.47 8.38-6.59 16.53-10.84 24.41-3.43 6.37-5.73 12.6-7.43 19.72-2.91 12.25-6.9 23.83-11.02 35.72-4.58 13.23 1.53 30.47 9.33 40.66 1.79 2.34 6.14 3.68 7.25 6.75s-.41 9.76-3.93 10.97c-6.43 2.21-15.72.57-20.12-4.99-7.94-10.02-13.47-22.14-14.81-34.73l-1.25-11.77c-.3-2.85 1.96-5.74.08-9.56-8.11 4.98-14.98 10.73-22.43 16.54l-14.19 11.06c-3.03 2.36-5.73 6.06-9.22 7.64-3.93 1.78-6.62 4.41-7.65 8.46-1.96 7.63-7.82 11.39-15.31 11.81-14.46.82-17.43-13.37-21.41-25.49-9.94-1.94-17.85 4.8-25.65 3-18.1-4.17-21.78-22.88-34.64-35.86-2.34-.17-4.7 3.22-6.21 4.27l-32.4 22.69c-7.64 5.35-17.36 5.72-24.61-.13l-12.82-10.35Zm-165.49-25.43c9.09-9.52 32.05-30.44 17.05-44.18-5.2-.38-10.24 3.78-14.34 6.76-7.18 5.22-13.04 10.68-18.95 17.17-7.61 8.36-15 16.44-21.26 25.83-4.6 6.9-6.46 14.7-3.99 22.61 15.8 4.94 30.63-16.82 41.48-28.19h.01ZM840.36 235.8l18.46-30.89c2.99-5 8.5-35.17-.33-36.43-5.85 1.23-11 5.89-13.98 11.07-7.65 13.31-14.58 26.21-20.12 40.62-2.32 6.02-4 16.32.29 21.18 4.66 5.28 12.73-.6 15.69-5.55h-.01Zm334.59-31.76c9.75-11.56 18.02-17.39 24.57-29.82.75-1.42-.11-5.14-1.52-5.56-1.21-.36-4.41-.07-5.55.93-7.16 6.24-14.66 13.32-20.98 21.03-2.85 3.48-2.13 10.58-1.61 14.66.99.92 4.25-.24 5.1-1.24h-.01Zm182.95 31.18c13.26-8.02 24.88-16.42 36.79-25.38 4.91-3.7 30.45-21.09 20.8-28.51l-5.98 5.14c-6.74 5.8-12.81 11.65-18.58 18.38-3.84 4.48-9.16 6.39-15.35 6.54-4.85 3.82-24.02 15.45-17.68 23.83Zm-640.64-2.41c3.19-5.19 10.85-37.63 4.95-36.79-.79.11-2.69 1.49-3.02 2.49-2.77 8.47-11.68 28.41-1.93 34.3ZM649.67 288.56c-.43 6.05-.12 11.68-1.35 17.36l-3.2 14.79-6.77 43.45-3.82 21.77c-2.3 13.12 5.03 30.61-4.64 40.2-2.81 2.79-10.72 1.71-12.43-2.45-2.99-7.3-5.53-14.55-8.07-21.88 5.18-15.85-.13-42.21 4.13-59.53l7.89-32.07c2.48-10.1 1.36-20.37.29-30.61-1.76-16.78 5.93-20.58 8.37-38.02.26-1.87-1.19-5.37-1.95-7.51-2.64-7.47-18.05 3.33-22.48 6.32-8.55 5.77-17.74 8.16-27.99 8.71-23.22 1.24-29.03 1.39-47.04-12.54-3.87-2.99-6.58-7.83-8.36-12.39-3.39-8.69-7.12-16.38-11.96-24.38-3.49-5.75-7.08-12.44-7.41-19.35-.84-17.46-1.49-26.25 5.08-41.4 5.06-11.67 12.79-21.12 18.75-32.26 9.06-16.97 19.16-32.16 30.84-47.37 6.39-8.33 11.84-16.3 19.86-23.08l28.78-24.35c9.87-8.35 29.1-6.24 41.73-6.85 18.57 9.46 35.39 17.8 45.14 37.05s4.71 46.34-11.93 54.83c-5.09 2.6-11.3-2.01-12.62-7.22-.99-3.9-1.71-8.25-1.41-12.08.52-6.66-2.92-11.12-4.47-16.91-4.05-15.23 0-31.18-19.51-35.96-20.36-4.99-34.36 13.61-48.32 24.82-6.35 5.09-9.61 11.31-14.57 17.5-5.65 7.06-10.58 13.91-15.85 21.43l-10.6 15.13c-6.38 9.1-11.72 18.96-15.15 29.75-3.69 11.63-3.48 23.84-4.62 35.8-1.72 18.07 6.41 32.08 14.76 48.11s35.81 12.32 51.24.45c22.14-17.04 19.17-6.56 37.57-33.46 2.15-3.14 5.64-5.35 8.73-5.75 3.47-.45 8.37.69 9.88 4.32 2.25 5.41 1.83 11.65 1.77 17.6-.09 8.19.8 15.97 1.25 23.93.79 13.94-3.98 26.68-7.68 39.69-4.56 16.02-.86 10.47-1.86 24.43v-.02ZM1459.34 322.97c-.47-.03-1.03-12.44-3.84-12.44h-15.52v12.44c.01 1.26-6.21 1.22-6.21 0v-32.48c5.24.01 14.03 0 21.17 0 5.11 0 10.35 4.97 10.31 10.02 0 4.96-1.88 6.17-3.01 7.2 1.13.9 3.02 7.67 3.01 12.01v3.25c0 1.25-5.9 1.21-5.91 0m-4.42-18.2c2.32 0 4.22-2.09 4.23-4.26s-1.95-4.27-4.23-4.27h-14.94v8.53M1333.52 322.74c0 1.57-5.45 1.53-6.87 0l-20.74-22.61v22.48c-.02 1.23-2.46 1.22-3.08 1.22s-3.12.01-3.12-1.26v-30.96c0-1.53 5.49-1.53 6.88 0 6.85 7.5 13.42 14.76 20.66 22.82.02-7.08-.01-19.89 0-23.03 0-1.22 6.27-1.25 6.27 0M1060.3 310.04c-1.23 0-1.26-3.97 0-3.97h16.28v16.85c0 1.26-3.45 1.21-4.13.34l-2.21-3.23c-4.16 3.23-9.09 4.2-14.36 3.79-10.5-.85-17.23-8.25-16.58-18.1s8.9-15.52 19.44-15.24c9.56.08 19.41 8 17.26 11.17-2.14 2.58-4.87-1.05-9.73-3.96-4.94-2.92-14.31-3.62-18.85 2.42-3.17 4.2-3.09 9.6-.65 13.31 2.97 4.5 7.55 5.48 12.03 5.46 4.64 0 10.78-3.14 11.5-8.83M718.53 318.78c-6.04 6.31-14.36 5.78-21.6 3.74-4.24-1.19-8.38-5.89-8.03-8.67.43-2.37 2.98-2.64 4.02-1.71l2.61 2.81c4.31 4.63 15.45 5.31 18.43.69 1.09-1.95-.19-4.83-2.46-5.17l-14.74-2.48c-4.66-.79-8.12-6.15-6.86-10.15 1.77-5.63 7.27-6.98 12.71-7.32 12.99-.76 18.46 7.92 15.55 9.53-3.25 1.84-5.82-4.71-12.92-4.85-3.84-.08-9.56.75-9.79 4.46-.18 5.73 12.49 2.82 22.12 7.7 3.84 2.24 2.75 9.74.96 11.43ZM739.54 310.73v11.9c0 1.24-2.66 1.27-3.2 1.27s-3.2-.06-3.2-1.27v-32.22c8.13.05 16 0 21.53 0s9.05 4.54 9.05 10.76c.08 4.95-3.69 9.45-9.03 9.57m-1.06-4.55c3.03 0 4.11-3.1 4.02-5.09-.06-2.19-1.02-4.94-4.02-4.94h-14.09v9.99M1225.15 319.25c5.47 0 9.95-2.9 11.19-7.85 0-1.89 5.18-1.84 5.19 0 0 6.87-7.12 12.5-16.38 12.5s-15.78-4.47-17.6-11.56c-1.12-4.2-1.15-6.38 0-10.68 1.91-7.04 8.08-11.19 17.6-11.19s16.36 5.37 16.38 12.2c-.01 1.89-5.19 1.89-5.19 0-1.39-4.98-6.53-7.88-11.19-7.87-8.17 0-13.16 4.74-13.14 12.22-.02 7.51 5.01 12.22 13.14 12.23ZM1097.92 303.93h22.53v-12.39c0-.72 1.83-1.08 2.81-1.08 1.06 0 2.81.35 2.81 1.08v31.42c0 1.22-5.63 1.22-5.63 0v-14.51h-22.53v14.51c0 1.26-5.57 1.25-5.57 0v-31.57c0-1.24 5.57-1.24 5.57 0M782.55 314.13s-.53.99-2.84 5.11c-1.36 2.31-1.75 2.89-2.33 3.76-.88 1.33-6.82 1.21-5.94-.57l14.81-29.36c.51-1.01 1.93-2.63 3.89-2.63 2.09 0 3.54 1.5 4.17 2.76l14.67 29.23c.88 1.69-5.55 1.92-6.33.59l-1.99-3.78-2.68-5.11m-7.79-16.77-5.6 11.67c5.07.02 6.48.07 11.32 0M964.04 304.91c1.27 0 1.28 4.63 0 4.63h-19.65v13.07c0 1.28-2.59 1.29-3.18 1.29-.53 0-3.18 0-3.18-1.25v-32.17h26.34c1.26 0 1.26 2.14 1.26 2.76 0 .69-.03 2.76-1.3 2.76h-19.94c-.04 3.44-.04 5.87 0 8.91M1157.12 322.89c0 1.35-5.31 1.34-5.31 0v-26.78h-11.78c-1.22 0-1.21-2.81-1.21-2.81s0-2.81 1.21-2.81H1169c1.28 0 1.28 2.81 1.28 2.81s0 2.79-1.28 2.81h-11.87v26.78ZM1004.1 318.68c1.28 0 1.3 1.97 1.3 2.61s.02 2.61-1.24 2.61h-25.41v-32.13c0-1.26 2.2-1.29 2.81-1.29.66 0 2.81.03 2.81 1.29l-.12 26.91M1023.92 322.52c0 1.84-5.5 1.84-5.5.04v-30.82c0-.99 1.74-1.26 2.75-1.26s2.74.29 2.75 1.23M838.8 319.25c5.47 0 9.95-2.91 11.19-7.86 0-1.89 5.18-1.84 5.19 0 0 6.88-7.12 12.51-16.38 12.51s-15.78-4.47-17.6-11.57c-1.12-4.2-1.15-6.38 0-10.69 1.91-7.05 8.08-11.2 17.6-11.2s16.36 5.37 16.38 12.21c-.01 1.89-5.19 1.89-5.19 0-1.39-4.98-6.53-7.89-11.19-7.88-8.17 0-13.16 4.74-13.14 12.23-.02 7.52 5.01 12.23 13.14 12.24ZM1396.17 309.55c-.05 4.19-.04 3.76 0 9.07l21.3.04c1.29.02 1.29 2.47 1.29 2.62 0 .19 0 2.62-1.29 2.62h-27.16v-33.38h27.16c1.25 0 1.29 2.76 1.29 2.76s-.07 2.74-1.29 2.76h-21.3c-.04 4.07-.04 4.85 0 8.9l20.5.08c1.24 0 1.31 1.91 1.3 2.27.01.38-.08 2.26-1.3 2.27M1365.56 322.89c0 1.35-5.34 1.34-5.35 0l.03-26.8h-11.8c-1.22 0-1.22-2.84-1.22-2.84s0-2.79 1.22-2.79h28.97c1.28 0 1.28 2.81 1.28 2.81s0 2.79-1.28 2.81h-11.89l.02 24.28v2.52h.02ZM1262.56 309.53c-.05 4.2-.04 3.77 0 9.09l21.3.04c1.29.02 1.29 2.47 1.29 2.63 0 .19 0 2.62-1.29 2.62h-27.16v-33.44h27.16c1.25 0 1.29 2.71 1.29 2.71s-.07 2.86-1.29 2.88h-21.3c-.04 4.08-.04 4.82 0 8.88h20.5c1.24 0 1.31 1.95 1.3 2.31.01.38-.08 2.27-1.3 2.27M875.62 309.55c-.05 4.19-.04 3.76 0 9.07l21.3.04c1.29.02 1.29 2.47 1.29 2.62 0 .19 0 2.62-1.29 2.62h-27.16v-33.38h27.16c1.25 0 1.29 2.76 1.29 2.76s-.07 2.74-1.29 2.76h-21.3c-.04 4.07-.04 4.85 0 8.9h20.5c1.24 0 1.31 1.95 1.3 2.31.01.38-.08 2.3-1.3 2.31"/>
    <circle cx="222.77" cy="216.39" r="191.82" fill="#0b3d91"/>
    <circle cx="211.44" cy="61.42" r="2.15" fill="#fff"/>
    <circle cx="233.52" cy="64.29" r="2.15" fill="#fff"/>
    <circle cx="262.48" cy="103.28" r="2.15" fill="#fff"/>
    <circle cx="103.63" cy="303.99" r="2.15" fill="#fff"/>
    <circle cx="109.22" cy="321.19" r="2.15" fill="#fff"/>
    <circle cx="82.56" cy="306.57" r="1.61" fill="#fff"/>
    <circle cx="170.01" cy="340.36" r="1.62" fill="#fff"/>
    <circle cx="307.17" cy="311.87" r="1.61" fill="#fff"/>
    <circle cx="347.03" cy="268.58" r="1.62" fill="#fff"/>
    <circle cx="151.66" cy="115.86" r="1.61" fill="#fff"/>
    <circle cx="195.53" cy="83.64" r="1.61" fill="#fff"/>
    <circle cx="190.76" cy="80.49" r="1.61" fill="#fff"/>
    <circle cx="186.46" cy="77.33" r="1.61" fill="#fff"/>
    <circle cx="158.54" cy="124.18" r="1.61" fill="#fff"/>
    <circle cx="223.16" cy="40.34" r="1.61" fill="#fff"/>
    <circle cx="233.77" cy="86.79" r="1.61" fill="#fff"/>
    <circle cx="217.03" cy="77.72" r="1.61" fill="#fff"/>
    <circle cx="188.36" cy="90.06" r="1.61" fill="#fff"/>
    <circle cx="314.81" cy="354.42" r="1.61" fill="#fff"/>
    <circle cx="100.91" cy="314.88" r="1.62" fill="#fff"/>
    <circle cx="213.02" cy="335.67" r="1.62" fill="#fff"/>
    <circle cx="134.28" cy="313.59" r="1.62" fill="#fff"/>
    <circle cx="148.22" cy="336.36" r="1.62" fill="#fff"/>
    <circle cx="250.87" cy="322.02" r="1.61" fill="#fff"/>
    <circle cx="307.46" cy="290.08" r="1.61" fill="#fff"/>
    <circle cx="350.36" cy="309.68" r="1.61" fill="#fff"/>
    <circle cx="364.98" cy="319.04" r="1.61" fill="#fff"/>
    <circle cx="367.39" cy="293.52" r="1.61" fill="#fff"/>
    <circle cx="154.06" cy="257.4" r="1.61" fill="#fff"/>
    <circle cx="154.67" cy="294.38" r="2.15" fill="#fff"/>
    <circle cx="167.57" cy="321.62" r="2.15" fill="#fff"/>
    <circle cx="322.12" cy="293.24" r="2.15" fill="#fff"/>
    <circle cx="377.74" cy="290.08" r="2.15" fill="#fff"/>
    <circle cx="350.22" cy="278.33" r="2.15" fill="#fff"/>
    <circle cx="322.12" cy="279.47" r="2.15" fill="#fff"/>
    <path d="m264.16 60.07 5.35-.51-5.34-.3a2.366 2.366 0 0 0-2.04-1.97l-.51-5.32-.31 5.37c-.97.22-1.71 1.02-1.83 2.03l-5.47.5 5.51.3c.2.92.95 1.64 1.88 1.82l.5 5.49.29-5.48c.99-.17 1.77-.93 1.96-1.9ZM173.91 119.6l5.35-.51-5.34-.3a2.355 2.355 0 0 0-2.04-1.97l-.51-5.32-.3 5.37c-.97.22-1.71 1.02-1.83 2.03l-5.47.5 5.51.3c.2.92.95 1.64 1.88 1.82l.5 5.49.3-5.48c.99-.16 1.77-.93 1.95-1.9ZM373.82 277.01l5.35-.51-5.34-.3a2.355 2.355 0 0 0-2.04-1.97l-.51-5.32-.3 5.37c-.97.22-1.71 1.02-1.83 2.03l-5.47.5 5.51.3c.2.92.95 1.64 1.88 1.82l.5 5.49.3-5.48c.98-.16 1.76-.92 1.95-1.9ZM155.84 359.31l5.35-.51-5.34-.3a2.366 2.366 0 0 0-2.04-1.97l-.51-5.32-.3 5.36c-.97.22-1.71 1.02-1.83 2.03l-5.47.5 5.51.3c.2.92.95 1.65 1.88 1.82l.5 5.49.3-5.48c.98-.16 1.77-.93 1.95-1.9ZM356.84 319.17l5.35-.51-5.34-.3a2.355 2.355 0 0 0-2.04-1.97l-.51-5.32-.3 5.36c-.97.22-1.71 1.02-1.83 2.03l-5.47.5 5.51.3c.2.92.95 1.64 1.88 1.82l.5 5.49.3-5.48c.98-.16 1.77-.92 1.95-1.9Z" fill="#fff"/>
    <path d="M268.26 170.45c-22.3 8.67-44.06 16.41-62.41 22.15-37.3 11.68-139.35 43.3-200.99 83.15l5.16 2.01c37.56-21.22 61.98-27.88 85.44-35.27 25.52-8.03 108.01-27.33 145.37-37.85 12.62-3.55 27.4-8.2 43.06-13.86-3.64-5.08-7.48-10.17-11.53-15.26a259.48 259.48 0 0 0-4.1-5.08ZM295.51 208c-5.4 3.65-9.93 6.56-13.09 8.39-18.35 10.61-107.81 71.68-128.17 85.73-20.35 14.05-76.84 67.38-93.47 82.86l-.57 6.3c53.62-48.17 70.44-60.05 91.75-76.26 26.38-20.07 80.95-57.2 99.49-69.1 17.73-11.37 33.72-21.83 48.07-31.41-.23-.39-.47-.78-.7-1.18a411.66 411.66 0 0 0-3.31-5.34Zm83.81-88.52c-26.12 15.31-67.29 33.79-107.23 49.47.96 1.17 1.91 2.35 2.85 3.54 4.46 5.62 8.67 11.28 12.64 16.94 31.4-11.56 65.85-27.09 93.18-45.87-13.02 12.34-56.07 44.51-82.32 62.45 1.35 2.2 2.66 4.41 3.93 6.6 39.77-26.61 66.53-46.2 82.12-59.3 21.5-18.06 70.53-58.49 89.17-112.68-32.69 41.58-71.34 65.37-94.34 78.85Z" fill="#fc3d21"/>
    <path d="M198.09 263.89c-4.23-5.32-10.08-12.45-14.47-17.98a334.905 334.905 0 0 1-16.29-22.32c-1.62.41-3.24.81-4.86 1.22 6.01 9.38 12.69 18.75 19.96 27.9 5.31 6.69 10.15 12.08 12.62 15.43.5.68 1.5 2.18 2.84 4.18 1.55-1.05 3.11-2.11 4.69-3.18-1.52-1.66-3.03-3.4-4.49-5.24Zm30.87 28.02c-3.47-3.29-11.9-8.78-20.67-17.02-1.94 1.33-3.89 2.68-5.85 4.03 5.66 7.98 13.38 17.78 19.42 20.64 9.1 4.31 11.55-3.44 7.1-7.66Zm45.98-119.42c-50.14-63.11-111.39-97.78-137.8-76.79-20.51 16.3-12.09 63.92 16.18 113.95 1.46-.5 2.91-.99 4.34-1.48-28.53-48.74-36.34-94.04-17-109.41 24.31-19.32 83.01 15.49 131.69 76.77 10.08 12.68 18.94 25.41 26.44 37.82 28.73 47.55 37.55 90.55 17.7 108.1-6.07 5.37-24.63 7.48-48.95-3.46-.34.43.21 1.58.63 1.86 20.99 8.44 41.09 11.66 51.24 3.59 24.39-19.38 5.65-87.83-44.49-150.94ZM59.91 179.98h32.11l26.95 45.73v-35.7c0-4.01-5.09-9.25-6.88-10.04h22.22c-1.36.36-5.73 5.66-5.73 10.04v52.47c0 3.23 4.66 7.67 6.88 9.39h-30.97l-27.38-45.95v36.13c0 3.58 3.51 7.02 7.17 9.96H60.63c3.37-1.43 6.59-5.95 6.88-9.53s0-49.82 0-51.83c0-4.37-4.23-7.96-7.6-10.68Z" fill="#fff"/>
    <path d="M353.66 251.88h42.72c-2.37-.57-5.02-3.37-6.45-7.1-1.43-3.73-24.08-64.8-24.08-64.8h-16.24c-4.61 3.32-9.54 6.81-14.81 10.5-.01.13-.03.27-.05.4-.71 4.3-13.42 50.34-14.19 52.61-1.08 3.15-6.59 6.67-8.82 8.53h23.01c-2.29-2.58-4.16-5.09-3.73-7.96.43-2.87 1.72-8.6 1.72-8.6h23.8c1.08 2.87 1.88 5.44 2.29 7.88.5 2.94-2.51 6.24-5.16 8.53Zm-18.78-25.59 8.03-26.24 10.61 26.24h-18.64Zm-3.62-43.69c1.18-.87 2.37-1.74 3.55-2.62h-6.24c.62.57 1.65 1.48 2.69 2.62ZM167.86 244.06c.43-2.87 1.72-8.6 1.72-8.6h23.8c1.08 2.87 1.88 5.44 2.29 7.88.5 2.94-2.51 6.24-5.16 8.53h37.61c.78-.53 1.56-1.05 2.34-1.57-1.46-1.29-2.8-3.23-3.68-5.52-1.43-3.73-24.08-64.8-24.08-64.8h-37.27c1.79 1.65 6.95 6.09 6.16 10.9-.7 4.3-13.42 50.34-14.19 52.61-1.08 3.15-6.59 6.67-8.82 8.53h23.01c-2.29-2.58-4.16-5.09-3.73-7.96Zm11.9-44.01 10.61 26.24h-18.64l8.03-26.24ZM297.79 215.67c-7.02 4.67-14.42 9.55-22.22 14.65 3.5 1.7 6.28 3.83 6.55 6.58.5 5.17-9.89 7.67-19.28 6.59-1.88-.22-3.72-.71-5.48-1.37-1.95 1.26-3.92 2.52-5.92 3.8-2.03 1.3-4.5 2.91-7.31 4.76v7.42c1.86-3.66 5.94-6.93 9.1-7.1 1.36-.07 6.09 4.3 25.59 3.23 9.46-.52 27.74-10.61 27.45-22.22-.17-6.86-3.76-12.21-8.49-16.35Zm-53.66 17.93v7.56c1.73-1.15 3.43-2.28 5.09-3.39-2.62-1.83-4.48-3.53-5.09-4.17Zm46.99-22.68a64.656 64.656 0 0 0-5.42-2.85c-9.18-4.3-18.78-5.09-20.79-10.9-1.41-4.1 2.58-7.88 12.33-7.74 9.75.14 18.78 5.95 21.22 8.03v-18.49c-.72.72-3.86 4.32-6.74 3.73-5.52-1.15-14.91-2.64-25.66-2.58-12.33.07-22.94 9.6-23.3 21.65-.5 16.85 12.97 21.43 20.57 24.08.78.27 1.68.56 2.65.87 7.29-4.74 13.05-8.39 16.42-10.34 2.27-1.3 5.23-3.18 8.71-5.47Z" fill="#fff"/>
</svg>
