<?xml version="1.0" encoding="UTF-8"?>
<svg xmlns="http://www.w3.org/2000/svg" xmlns:xlink="http://www.w3.org/1999/xlink" width="800pt" height="400pt" viewBox="0 0 800 400">
<path fill-rule="nonzero" fill="rgb(12.786865%, 11.294556%, 11.198425%)" fill-opacity="1" d="M 178.515625 234.597656 L 168.929688 234.597656 L 168.929688 230.808594 L 192.121094 230.808594 L 192.121094 234.597656 L 182.542969 234.597656 L 182.542969 260.5625 L 178.515625 260.5625 L 178.515625 234.597656 "/>
<path fill-rule="nonzero" fill="rgb(12.786865%, 11.294556%, 11.198425%)" fill-opacity="1" d="M 198.523438 230.808594 L 202.558594 230.808594 L 202.558594 243.167969 L 217.980469 243.167969 L 217.980469 230.808594 L 222.011719 230.808594 L 222.011719 260.566406 L 217.980469 260.566406 L 217.980469 246.945312 L 202.558594 246.945312 L 202.558594 260.566406 L 198.523438 260.566406 L 198.523438 230.808594 "/>
<path fill-rule="nonzero" fill="rgb(12.786865%, 11.294556%, 11.198425%)" fill-opacity="1" d="M 231.777344 230.808594 L 250.980469 230.808594 L 250.980469 234.601562 L 235.8125 234.601562 L 235.8125 243.453125 L 249.925781 243.453125 L 249.925781 247.242188 L 235.8125 247.242188 L 235.8125 256.773438 L 251.726562 256.773438 L 251.726562 260.566406 L 231.777344 260.566406 L 231.777344 230.808594 "/>
<path fill-rule="nonzero" fill="rgb(12.786865%, 11.294556%, 11.198425%)" fill-opacity="1" d="M 276.835938 230.808594 L 276.835938 249.050781 C 276.835938 252.746094 278.683594 257.546875 284.316406 257.546875 C 289.941406 257.546875 291.792969 252.746094 291.792969 249.050781 L 291.792969 230.808594 L 295.824219 230.808594 L 295.824219 249.6875 C 295.824219 256.5625 290.824219 261.320312 284.316406 261.320312 C 277.804688 261.320312 272.804688 256.5625 272.804688 249.6875 L 272.804688 230.808594 L 276.835938 230.808594 "/>
<path fill-rule="nonzero" fill="rgb(12.786865%, 11.294556%, 11.198425%)" fill-opacity="1" d="M 464.03125 260.558594 L 468.0625 260.558594 L 468.0625 230.804688 L 464.03125 230.804688 L 464.03125 260.558594 "/>
<path fill-rule="nonzero" fill="rgb(12.786865%, 11.294556%, 11.198425%)" fill-opacity="1" d="M 484.035156 234.597656 L 474.453125 234.597656 L 474.453125 230.808594 L 497.65625 230.808594 L 497.65625 234.597656 L 488.066406 234.597656 L 488.066406 260.5625 L 484.035156 260.5625 L 484.035156 234.597656 "/>
<path fill-rule="nonzero" fill="rgb(12.786865%, 11.294556%, 11.198425%)" fill-opacity="1" d="M 511.066406 247.875 L 499.804688 230.8125 L 504.976562 230.8125 L 513.085938 243.878906 L 521.449219 230.8125 L 526.363281 230.8125 L 515.097656 247.875 L 515.097656 260.5625 L 511.066406 260.5625 L 511.066406 247.875 "/>
<path fill-rule="nonzero" fill="rgb(12.786865%, 11.294556%, 11.198425%)" fill-opacity="1" d="M 543.820312 245.6875 C 543.820312 236.859375 550.253906 230.058594 559.324219 230.058594 C 568.398438 230.058594 574.824219 236.859375 574.824219 245.6875 C 574.824219 254.511719 568.398438 261.320312 559.324219 261.320312 C 550.253906 261.320312 543.820312 254.511719 543.820312 245.6875 M 570.542969 245.6875 C 570.542969 239.175781 566.128906 233.839844 559.324219 233.839844 C 552.515625 233.839844 548.101562 239.175781 548.101562 245.6875 C 548.101562 252.199219 552.515625 257.539062 559.324219 257.539062 C 566.128906 257.539062 570.542969 252.199219 570.542969 245.6875 "/>
<path fill-rule="nonzero" fill="rgb(12.786865%, 11.294556%, 11.198425%)" fill-opacity="1" d="M 582.738281 230.808594 L 601.445312 230.808594 L 601.445312 234.601562 L 586.777344 234.601562 L 586.777344 243.925781 L 600.429688 243.925781 L 600.429688 247.707031 L 586.777344 247.707031 L 586.777344 260.566406 L 582.738281 260.566406 L 582.738281 230.808594 "/>
<path fill-rule="nonzero" fill="rgb(12.786865%, 11.294556%, 11.198425%)" fill-opacity="1" d="M 305.042969 230.808594 L 310.339844 230.808594 L 326.71875 255.261719 L 326.8125 255.261719 L 326.8125 230.808594 L 330.839844 230.808594 L 330.839844 260.566406 L 325.722656 260.566406 L 309.167969 236.109375 L 309.085938 236.109375 L 309.085938 260.566406 L 305.042969 260.566406 L 305.042969 230.808594 "/>
<path fill-rule="nonzero" fill="rgb(12.786865%, 11.294556%, 11.198425%)" fill-opacity="1" d="M 340.609375 260.558594 L 344.644531 260.558594 L 344.644531 230.804688 L 340.609375 230.804688 L 340.609375 260.558594 "/>
<path fill-rule="nonzero" fill="rgb(12.786865%, 11.294556%, 11.198425%)" fill-opacity="1" d="M 350.328125 230.808594 L 354.988281 230.808594 L 363.726562 255.015625 L 363.808594 255.015625 L 372.886719 230.808594 L 377.300781 230.808594 L 365.578125 260.566406 L 361.789062 260.566406 L 350.328125 230.808594 "/>
<path fill-rule="nonzero" fill="rgb(12.786865%, 11.294556%, 11.198425%)" fill-opacity="1" d="M 382.988281 230.808594 L 402.175781 230.808594 L 402.175781 234.601562 L 387.019531 234.601562 L 387.019531 243.453125 L 401.136719 243.453125 L 401.136719 247.242188 L 387.019531 247.242188 L 387.019531 256.773438 L 402.9375 256.773438 L 402.9375 260.566406 L 382.988281 260.566406 L 382.988281 230.808594 "/>
<path fill-rule="nonzero" fill="rgb(12.786865%, 11.294556%, 11.198425%)" fill-opacity="1" d="M 410.769531 230.808594 L 421.230469 230.808594 C 428.835938 230.808594 430.765625 235.390625 430.765625 239.136719 C 430.765625 242.917969 427.957031 246.480469 423.464844 246.992188 L 431.902344 260.5625 L 426.863281 260.5625 L 419.292969 247.457031 L 414.804688 247.457031 L 414.804688 260.5625 L 410.769531 260.5625 Z M 414.804688 243.925781 L 420.101562 243.925781 C 423.296875 243.925781 426.480469 243.167969 426.480469 239.136719 C 426.480469 235.101562 423.296875 234.339844 420.101562 234.339844 L 414.804688 234.339844 L 414.804688 243.925781 "/>
<path fill-rule="nonzero" fill="rgb(12.786865%, 11.294556%, 11.198425%)" fill-opacity="1" d="M 439.4375 254.339844 C 440.867188 256.523438 443.34375 257.535156 445.746094 257.535156 C 448.386719 257.535156 451.667969 255.859375 451.667969 252.578125 C 451.667969 245.726562 436.996094 249.972656 436.996094 238.378906 C 436.996094 234.894531 439.941406 230.054688 447.085938 230.054688 C 450.324219 230.054688 453.425781 230.738281 455.65625 233.464844 L 452.375 236.449219 C 451.367188 234.894531 449.394531 233.839844 447.085938 233.839844 C 442.628906 233.839844 441.285156 236.53125 441.285156 238.378906 C 441.285156 245.902344 455.949219 241.402344 455.949219 252.121094 C 455.949219 257.871094 451.324219 261.316406 445.613281 261.316406 C 441.785156 261.316406 438.136719 260.011719 436.121094 257.203125 L 439.4375 254.339844 "/>
<path fill-rule="nonzero" fill="rgb(12.786865%, 11.294556%, 11.198425%)" fill-opacity="1" d="M 116.65625 281.261719 L 103.550781 311.007812 L 108.253906 311.007812 L 111.191406 303.65625 L 125.347656 303.65625 L 128.324219 311.007812 L 133.035156 311.007812 L 120.304688 281.261719 Z M 118.246094 286.46875 L 118.335938 286.46875 L 123.878906 300.121094 L 112.613281 300.121094 L 118.246094 286.46875 "/>
<path fill-rule="nonzero" fill="rgb(12.786865%, 11.294556%, 11.198425%)" fill-opacity="1" d="M 139.015625 281.265625 L 143.054688 281.265625 L 143.054688 307.226562 L 156.707031 307.226562 L 156.707031 311.007812 L 139.015625 311.007812 L 139.015625 281.265625 "/>
<path fill-rule="nonzero" fill="rgb(12.786865%, 11.294556%, 11.198425%)" fill-opacity="1" d="M 172.273438 281.261719 L 175.914062 281.261719 L 188.65625 311.011719 L 183.949219 311.011719 L 180.96875 303.652344 L 166.800781 303.652344 L 163.867188 311.011719 L 159.160156 311.011719 Z M 179.492188 300.121094 L 173.945312 286.46875 L 173.867188 286.46875 L 168.226562 300.121094 L 179.492188 300.121094 "/>
<path fill-rule="nonzero" fill="rgb(12.786865%, 11.294556%, 11.198425%)" fill-opacity="1" d="M 194.632812 281.265625 L 204.96875 281.265625 C 210.136719 281.265625 214.007812 283.652344 214.007812 288.699219 C 214.007812 292.101562 211.898438 294.242188 208.882812 295.246094 L 208.882812 295.328125 C 212.449219 295.585938 215.308594 298.742188 215.308594 302.730469 C 215.308594 308.0625 210.636719 311.007812 204.84375 311.007812 L 194.632812 311.007812 Z M 198.667969 293.609375 L 204.164062 293.609375 C 207.242188 293.609375 209.726562 292.394531 209.726562 289.15625 C 209.726562 286.796875 208.242188 284.792969 205.011719 284.792969 L 198.667969 284.792969 Z M 198.667969 307.480469 L 204.59375 307.480469 C 207.03125 307.480469 211.019531 306.636719 211.019531 302.429688 C 211.019531 298.914062 208.542969 297.144531 204.632812 297.144531 L 198.667969 297.144531 L 198.667969 307.480469 "/>
<path fill-rule="nonzero" fill="rgb(12.786865%, 11.294556%, 11.198425%)" fill-opacity="1" d="M 232.550781 281.261719 L 236.203125 281.261719 L 248.933594 311.011719 L 244.234375 311.011719 L 241.246094 303.652344 L 227.089844 303.652344 L 224.148438 311.011719 L 219.4375 311.011719 Z M 239.777344 300.121094 L 234.226562 286.46875 L 234.144531 286.46875 L 228.507812 300.121094 L 239.777344 300.121094 "/>
<path fill-rule="nonzero" fill="rgb(12.786865%, 11.294556%, 11.198425%)" fill-opacity="1" d="M 254.625 281.265625 L 260.632812 281.265625 L 270.089844 303.78125 L 270.25 303.78125 L 279.628906 281.265625 L 285.632812 281.265625 L 285.632812 311.007812 L 281.589844 311.007812 L 281.589844 286.550781 L 281.519531 286.550781 L 271.46875 311.007812 L 268.785156 311.007812 L 258.742188 286.550781 L 258.65625 286.550781 L 258.65625 311.007812 L 254.625 311.007812 L 254.625 281.265625 "/>
<path fill-rule="nonzero" fill="rgb(12.786865%, 11.294556%, 11.198425%)" fill-opacity="1" d="M 304.425781 281.261719 L 308.085938 281.261719 L 320.816406 311.011719 L 316.109375 311.011719 L 313.128906 303.652344 L 298.972656 303.652344 L 296.027344 311.011719 L 291.320312 311.011719 Z M 311.667969 300.121094 L 306.117188 286.46875 L 306.035156 286.46875 L 300.402344 300.121094 L 311.667969 300.121094 "/>
<path fill-rule="nonzero" fill="rgb(12.786865%, 11.294556%, 11.198425%)" fill-opacity="1" d="M 340.585938 311.007812 L 344.625 311.007812 L 344.625 281.253906 L 340.585938 281.253906 L 340.585938 311.007812 "/>
<path fill-rule="nonzero" fill="rgb(12.786865%, 11.294556%, 11.198425%)" fill-opacity="1" d="M 354.378906 281.265625 L 359.679688 281.265625 L 376.054688 305.71875 L 376.140625 305.71875 L 376.140625 281.265625 L 380.175781 281.265625 L 380.175781 311.007812 L 375.046875 311.007812 L 358.496094 286.550781 L 358.40625 286.550781 L 358.40625 311.007812 L 354.378906 311.007812 L 354.378906 281.265625 "/>
<path fill-rule="nonzero" fill="rgb(12.786865%, 11.294556%, 11.198425%)" fill-opacity="1" d="M 403.730469 281.265625 L 407.761719 281.265625 L 407.761719 293.609375 L 423.1875 293.609375 L 423.1875 281.265625 L 427.21875 281.265625 L 427.21875 311.007812 L 423.1875 311.007812 L 423.1875 297.398438 L 407.761719 297.398438 L 407.761719 311.007812 L 403.730469 311.007812 L 403.730469 281.265625 "/>
<path fill-rule="nonzero" fill="rgb(12.786865%, 11.294556%, 11.198425%)" fill-opacity="1" d="M 440.46875 281.265625 L 440.46875 299.492188 C 440.46875 303.1875 442.316406 307.972656 447.945312 307.972656 C 453.578125 307.972656 455.425781 303.1875 455.425781 299.492188 L 455.425781 281.265625 L 459.457031 281.265625 L 459.457031 300.125 C 459.457031 307.011719 454.464844 311.761719 447.945312 311.761719 C 441.429688 311.761719 436.4375 307.011719 436.4375 300.125 L 436.4375 281.265625 L 440.46875 281.265625 "/>
<path fill-rule="nonzero" fill="rgb(12.786865%, 11.294556%, 11.198425%)" fill-opacity="1" d="M 468.679688 281.265625 L 473.976562 281.265625 L 490.355469 305.71875 L 490.445312 305.71875 L 490.445312 281.265625 L 494.476562 281.265625 L 494.476562 311.007812 L 489.34375 311.007812 L 472.789062 286.550781 L 472.710938 286.550781 L 472.710938 311.007812 L 468.679688 311.007812 L 468.679688 281.265625 "/>
<path fill-rule="nonzero" fill="rgb(12.786865%, 11.294556%, 11.198425%)" fill-opacity="1" d="M 510.460938 285.039062 L 500.882812 285.039062 L 500.882812 281.257812 L 524.070312 281.257812 L 524.070312 285.039062 L 514.492188 285.039062 L 514.492188 311.003906 L 510.460938 311.003906 L 510.460938 285.039062 "/>
<path fill-rule="nonzero" fill="rgb(12.786865%, 11.294556%, 11.198425%)" fill-opacity="1" d="M 531.355469 304.785156 C 532.785156 306.96875 535.261719 307.972656 537.65625 307.972656 C 540.308594 307.972656 543.585938 306.296875 543.585938 303.023438 C 543.585938 296.171875 528.917969 300.421875 528.917969 288.820312 C 528.917969 285.335938 531.855469 280.5 539.003906 280.5 C 542.238281 280.5 545.34375 281.171875 547.570312 283.90625 L 544.300781 286.890625 C 543.28125 285.335938 541.3125 284.28125 539.003906 284.28125 C 534.550781 284.28125 533.207031 286.964844 533.207031 288.820312 C 533.207031 296.335938 547.878906 291.851562 547.878906 302.554688 C 547.878906 308.316406 543.246094 311.761719 537.53125 311.761719 C 533.707031 311.761719 530.054688 310.457031 528.035156 307.640625 L 531.355469 304.785156 "/>
<path fill-rule="nonzero" fill="rgb(12.786865%, 11.294556%, 11.198425%)" fill-opacity="1" d="M 551.875 281.265625 L 556.53125 281.265625 L 565.285156 305.457031 L 565.359375 305.457031 L 574.441406 281.265625 L 578.84375 281.265625 L 567.125 311.007812 L 563.339844 311.007812 L 551.875 281.265625 "/>
<path fill-rule="nonzero" fill="rgb(12.786865%, 11.294556%, 11.198425%)" fill-opacity="1" d="M 584.539062 311.007812 L 588.570312 311.007812 L 588.570312 281.253906 L 584.539062 281.253906 L 584.539062 311.007812 "/>
<path fill-rule="nonzero" fill="rgb(12.786865%, 11.294556%, 11.198425%)" fill-opacity="1" d="M 598.324219 281.265625 L 602.355469 281.265625 L 602.355469 307.226562 L 616.007812 307.226562 L 616.007812 311.007812 L 598.324219 311.007812 L 598.324219 281.265625 "/>
<path fill-rule="nonzero" fill="rgb(12.786865%, 11.294556%, 11.198425%)" fill-opacity="1" d="M 622.242188 281.265625 L 626.273438 281.265625 L 626.273438 307.226562 L 639.925781 307.226562 L 639.925781 311.007812 L 622.242188 311.007812 L 622.242188 281.265625 "/>
<path fill-rule="nonzero" fill="rgb(12.786865%, 11.294556%, 11.198425%)" fill-opacity="1" d="M 646.15625 281.265625 L 665.367188 281.265625 L 665.367188 285.046875 L 650.1875 285.046875 L 650.1875 293.902344 L 664.308594 293.902344 L 664.308594 297.6875 L 650.1875 297.6875 L 650.1875 307.226562 L 666.109375 307.226562 L 666.109375 311.007812 L 646.15625 311.007812 L 646.15625 281.265625 "/>
<path fill-rule="nonzero" fill="rgb(11.940002%, 33.018494%, 66.03241%)" fill-opacity="1" d="M 384.835938 160.414062 L 384.835938 160.328125 L 384.8125 160.371094 L 384.78125 160.328125 L 384.78125 160.414062 L 366.777344 190.613281 C 366.777344 190.613281 376.578125 187.09375 384.8125 187.078125 C 393.042969 187.09375 402.851562 190.613281 402.851562 190.613281 Z M 451.796875 152.574219 L 479.25 199.882812 C 479.25 199.882812 456.863281 198.386719 449.355469 197.894531 C 441.851562 197.390625 424.179688 196.902344 424.179688 196.902344 L 384.835938 131.28125 L 345.476562 196.9375 C 345.476562 196.9375 301.179688 198.171875 262.917969 202.46875 C 238.828125 205.175781 209.414062 209.027344 177.539062 215.664062 L 244.390625 95.820312 L 299.644531 91.402344 L 258.390625 163.996094 L 314.554688 158.320312 L 355.101562 88.296875 L 414.550781 88.238281 L 432.472656 119.210938 L 488.386719 123.121094 L 470.332031 91.355469 L 525.597656 95.785156 L 592.585938 215.664062 C 592.585938 215.664062 575.214844 212.269531 561.339844 209.832031 C 547.460938 207.394531 535.429688 205.914062 535.429688 205.914062 L 507.324219 156.460938 L 451.796875 152.574219 "/>
<path fill-rule="nonzero" fill="rgb(6.32782%, 5.79834%, 5.117798%)" fill-opacity="1" d="M 680.421875 300.921875 C 683.414062 300.921875 685.839844 303.347656 685.839844 306.34375 C 685.839844 309.335938 683.414062 311.761719 680.421875 311.761719 C 677.425781 311.761719 675 309.335938 675 306.34375 C 675 303.347656 677.425781 300.921875 680.421875 300.921875 Z M 684.875 306.34375 C 684.875 303.832031 682.886719 301.796875 680.421875 301.796875 C 677.949219 301.796875 675.964844 303.832031 675.964844 306.34375 C 675.964844 308.855469 677.949219 310.886719 680.421875 310.886719 C 682.886719 310.886719 684.875 308.855469 684.875 306.34375 Z M 678.257812 303.203125 L 680.710938 303.203125 C 682.113281 303.203125 682.871094 303.800781 682.871094 305.058594 C 682.871094 306.183594 682.128906 306.707031 681.164062 306.808594 L 682.976562 309.542969 L 682.011719 309.542969 L 680.257812 306.882812 L 679.222656 306.882812 L 679.222656 309.542969 L 678.257812 309.542969 Z M 680.257812 306.007812 C 681.136719 306.007812 681.910156 305.960938 681.910156 305.011719 C 681.910156 304.179688 681.207031 304.078125 680.535156 304.078125 L 679.222656 304.078125 L 679.222656 306.007812 L 680.257812 306.007812 "/>
</svg>
