<?xml version="1.0" encoding="UTF-8" standalone="no"?>
<svg xmlns:rdf="http://www.w3.org/1999/02/22-rdf-syntax-ns#" xmlns="http://www.w3.org/2000/svg" xml:space="preserve" height="55.064" viewBox="0 0 276.63663 55.064031" width="276.64" version="1.1" xmlns:cc="http://creativecommons.org/ns#" xmlns:dc="http://purl.org/dc/elements/1.1/"><g transform="matrix(1.25 0 0 -1.25 -373.17 600.6)"><path d="m180.22 1.0254l-0.38 3.9121h0.43c0.37-2.1375 0.8-2.6953 1.77-2.6953h4.22v11.998c0 1.312-0.44 1.774-1.92 1.774h-0.89v0.451h7.64v-0.451h-0.9c-1.48 0-1.91-0.462-1.91-1.774v-11.998l4.21 0.0002c0.97 0 1.41 0.5578 1.77 2.6953h0.44l-0.39-3.9121h-0.46c-0.05 0.2881-0.41 0.3613-0.75 0.3613h-11.66c-0.17 0-0.34-0.024-0.49-0.0722-0.14-0.0498-0.24-0.1458-0.27-0.2891h-0.46zm-31.43 0.0019c-2.47 0-4.29 1.5001-4.29 3.5059 0 4.2275 7.74 5.291 7.74 8.7698 0 1.908-1.71 2.849-3.33 2.849-1.89 0-3.57-1.255-4.07-3.406h-0.46l0.5 3.719h0.41c0.1-0.188 0.27-0.313 0.48-0.313 0.34 0 2.03 0.668 3.35 0.668 2.83 0 4.92-1.779 4.92-4.146 0-4.4452-7.74-5.3629-7.74-8.7931 0-1.3533 1.11-2.2715 2.7-2.2715 1.67 0 3.22 1.1122 3.89 2.8515h0.41l-0.41-3.0742h-0.39c-0.14 0.1988-0.23 0.2461-0.43 0.2461-0.84 0-1.25-0.6055-3.28-0.6055zm97.75 0c-5.17 0-8.88 3.3965-8.88 8.2247 0 4.537 4.01 7.57 8.76 7.57 4.71 0 8.64-3.421 8.64-8.322 0-4.3672-3.93-7.4727-8.52-7.4727zm-120.98 0.1348c-1.58 0-2.06 0.0227-3.06 0.0703-0.99 0.0569-2.47 0.1543-3.05 0.1543v0.4492h0.53c1.41 0 1.82 0.4384 1.82 1.9414v10.215c0 1.632-0.51 2.022-1.94 2.022h-0.41v0.451h6.86v-0.451h-0.56c-1.35 0-1.94-0.366-1.94-1.828v-4.116c0.39 0.024 0.71 0.047 1.24 0.047 0.65 0 1.04-0.023 1.64-0.047 0.58 0.389 1.43 1.095 2.49 2.166l1.61 1.61c2.16 2.151 3.25 3.078 7.49 2.884v-0.443c-1.87-0.121-3.35-1.02-4.78-2.453l-1.91-1.918c-1.15-1.141-1.87-1.823-2.77-2.5156 1.99-0.5826 3.23-2.1117 3.23-3.9316 0-2.4746-2.02-4.3067-6.49-4.3067zm-122.46 0.2246v0.4492c1.6479 0.0245 2.084 0.2673 2.084 1.8164v7.0707c0 3.462 2.3798 6.101 7.0024 6.101 5.251 0 7.166-3.221 7.166-6.222v-6.5375c0-1.5499 0.581-2.2041 2.205-2.2286v-0.4492h-5.694v0.4492c2.009 0.098 2.371 0.5099 2.371 2.834v5.6411c0 4.115-2.783 5.253-5.517 5.253-3.6062 0-5.5178-1.962-5.5178-5.23v-6.7305c0-1.4043 0.5812-1.7676 1.9121-1.7676h0.2168v-0.4492h-6.2285zm26.461 0v0.4492c0.848 0.0245 1.479 0.2193 2.037 0.6075v11.944c0 1.117-0.484 1.627-1.987 1.627h-0.097v0.451h5.605v-0.451c-2.054 0-2.441-0.364-2.441-2.112v-10.414l12.517 13.157h0.623v-13.547c0-0.9466 0.388-1.2621 2.205-1.2621v-0.4492h-5.654v0.4492c1.934 0.049 2.369 0.3162 2.369 1.7969v9.6602l-11.384-11.906-3.793-0.0003zm28.209 0v0.4492c1.357 0.0735 1.816 0.4373 1.816 1.7481v10.342c0 1.626-0.313 2.014-1.816 2.088v0.451h5.894v-0.451c-1.672 0-2.06-0.487-2.06-1.918v-10.293c0-1.6265 0.533-1.9671 2.06-1.9671v-0.4492h-5.894zm14.503 0v0.4492c1.48 0 1.771 0.3634 2.377 1.8887l5.258 13.099h1.207l4.992-12.906c0.581-1.5009 1.234-2.0821 2.495-2.0821v-0.4492h-5.62v0.4492c1.646 0 2.252 0.291 2.252 1.0176 0 0.3393-0.145 0.8243-0.412 1.502l-3.824 9.9985-4.357-10.846c-0.461-1.1143 0.072-1.6231 2.298-1.6721v-0.4492h-6.666zm24.645 0v0.4492h0.533c1.624 0 1.938 0.5849 1.938 1.9453v10.239c0 1.459-0.339 1.994-2.278 1.994h-0.677v0.451h12.886l0.39-3.613h-0.44c-0.61 2.098-1.11 2.755-2.8 2.755h-3.75c-0.9 0-1.31-0.218-1.31-1.337v-5.188h4.11c1 0 1.46 0.1947 1.65 1.924h0.45v-4.6037h-0.45c-0.12 1.4109-0.53 1.8243-1.41 1.8243h-4.35v-5.9844h5.13c0.87 0 1.47 0.4375 1.78 2.5058h0.44l-0.19-3.3613h-11.652zm68.242 0v0.4492c1.36 0.0735 1.82 0.4373 1.82 1.7481v10.342c0 1.626-0.32 2.014-1.82 2.088v0.451h5.89v-0.451c-1.67 0-2.06-0.487-2.06-1.918v-10.293c0-1.6265 0.54-1.9671 2.06-1.9671v-0.4492h-5.89zm37.15 0v0.4492c1.58 0.049 2.14 0.3883 3.33 2.2579l4.27 6.7502v3.422c0 1.189-0.43 1.748-1.91 1.748h-0.45v0.451h6.65v-0.451h-0.32c-1.48 0-1.95-0.51-1.95-1.797v-3.641l4.05-6.8221c0.67-1.1415 1.38-1.7962 3.02-1.918v-0.4492h-5.48v0.4492c1.56 0 2.02 0.4128 1.24 1.7481l-3.44 5.8262-3.84-5.9961c-0.73-1.1171-0.61-1.5782 1.26-1.5782v-0.4492h-6.43zm58.68 0v0.4492c1.7 0.0245 1.82 0.7283 1.82 2.2832v9.5099c0 1.97-0.27 2.287-1.77 2.385v0.451h5.9v-0.451c-1.82 0-2.11-0.512-2.11-1.873v-5.3285h4.49c1.16 0 1.67 0.4388 1.72 1.8495h0.41v-4.2616h-0.41c-0.07 1.0457-0.51 1.5566-1.41 1.5566h-4.8v-5.7148h4.6c1.51 0 1.99 0.584 2.02 1.9941h0.4v-2.8496h-10.86zm-15.08 0.2227c4 0 6.87 3.1787 6.87 7.6914 0 3.4452-1.89 6.9392-5.85 6.9392-3.9 0-6.99-3.204-6.99-7.74 0-2.9117 1.7-6.8906 5.97-6.8906zm-120.89 0.0019c3.73 0 4.74 1.7468 4.74 4.0039 0 2.9118-1.76 4.0528-4.45 4.0528-0.55 0-0.92 0.0231-1.5-0.0489v-7.9589c0.44-0.049 0.75-0.0489 1.21-0.0489zm-65.903 19.932l0.453 1.1-9.144 24.908c-1.606 4.361-2.157 4.914-5.42 4.965h0.021v0.974h11.58v-0.974h-0.802c-2.763 0-4.071-0.502-4.071-1.856 0-0.702 0.655-2.205 1.006-3.158l2.914-7.875h10.395l3.367 9.129c0.201 0.501 0.553 1.252 0.553 2.055 0 1.404-1.057 1.705-3.92 1.705h-1.305v0.974h13.799 0.016 14.197v-0.974h-1.16c-2.828 0-4.041-0.748-4.041-3.743v-8.437c0.808 0.051 1.465 0.102 2.576 0.102 1.363 0 2.171-0.051 3.433-0.102 1.212 0.802 2.98 2.247 5.202 4.443l3.304 3.295c4.45 4.464 6.71 6.365 15.5 5.963v-0.9c-3.87-0.25-6.93-2.099-9.9-5.049l-3.96-3.949c-2.34-2.35-3.834-3.752-5.702-5.227 4.112-1.205 6.652-4.368 6.652-8.133 0-5.121-4.13-8.957-13.469-8.957-3.281 0-4.284 0.05-6.33 0.153-2.049 0.095-5.112 0.296-6.318 0.296v0.975h1.105c2.914 0 3.766 0.902 3.766 4.016v21.111c0 3.344-1.054 4.143-4.018 4.143h-0.837-0.016c-2.501-0.003-3.552-0.508-4.555-3.161l-10.5-27.812h-4.371zm123.26 0l0.46 1.1-9.15 24.908c-1.6 4.363-2.15 4.915-5.42 4.965v0.974h11.61v-0.974h-0.81c-2.76 0-4.07-0.502-4.07-1.856 0-0.702 0.66-2.205 1.01-3.158l2.91-7.875h10.4l3.36 9.129c0.2 0.501 0.56 1.252 0.56 2.055 0 1.404-1.06 1.705-3.92 1.705h-1.31v0.974h13.82v-0.974c-2.52 0-3.57-0.502-4.58-3.161l-10.49-27.812h-4.38zm73.79 0.279c-2.62 0-5.68 0.05-8.43 0.153-2.74 0.094-5.18 0.195-7.03 0.295v-0.038h-0.57v0.039h0.14v0.897h0.43v-0.004h0.96c2.97 0 3.82 0.804 3.82 4.07v21.623c0 2.907-1.25 3.659-3.97 3.659h-0.85v0.974h16.05c12.73 0 18.57-9.093 18.57-16.662 0-8.269-5.84-15.006-19.12-15.006zm-15.89 1.346h-0.14v-0.897h-11.6v0.975c4.01 0.101 4.91 0.652 4.91 3.713v19.973l-23.62-24.661h-7.87v0.975c1.76 0.051 3.06 0.451 4.22 1.254v24.658c0 2.306-1 3.358-4.12 3.358h-0.2v0.974h11.63v-0.974c-4.26 0-5.06-0.752-5.06-4.36v-21.504l25.97 27.205h1.3v-28.002c0-1.957 0.81-2.609 4.58-2.609v-0.078zm-237.07-0.904v0.9c3.1155 0.202 3.2168 1.107 3.0137 4.424l-1.2051 19.551c-0.2513 4.574-0.7019 5.377-4.3691 5.377l-0.00001 0.974h10.471v-0.974c-2.2606-0.101-4.185-0.654-4.0331-3.217l1.3711-22.617h0.0996l12.81 26.808h1.154l12.508-26.808h0.102l1.457 22.517c0.201 2.664-2.111 3.317-4.473 3.317v0.974h12.885v-0.974c-3.641 0-4.044-0.012-4.344-4.623l-1.607-22.768c-0.101-1.709 0.853-1.759 3.314-1.961v-0.9h-7.383l-12.056 25.326-12.106-25.326h-7.6091zm105.76 0.007v0.975c3.25 0.1 4.4 0.801 6.86 4.66l8.98 13.934v7.066c0 2.457-0.91 3.61-4.05 3.61h-0.97v0.974h13.83v-0.974h-0.66c-3.06 0-4.01-1.053-4.01-3.709v-7.518l8.33-14.084c1.4-2.356 2.85-3.708 6.25-3.959h0.46c3.17 0 3.97 1.104 3.97 3.764v22.197c0 2.556-0.85 3.309-3.16 3.309h-1.66v0.974h22.42l3.87-7.34h-0.9c-3.17 4.393-4.07 5.547-7.03 5.547h-7.39c-1.46 0-2.01-0.501-2.01-1.855v-23.135c0-3.111 0.86-3.461 4.12-3.461h1.86v-0.975h-14.55-0.24-11.08v0.975c3.21 0 4.16 0.851 2.56 3.608l-7.06 12.029-8.07-12.379c-1.51-2.306-1.26-3.258 2.69-3.258v-0.975h-13.36zm-18.89 0.524c7.776 0 9.897 3.616 9.897 8.285 0 6.025-3.686 8.383-9.291 8.383-1.161 0-1.919 0.052-3.131-0.1v-16.467c0.909-0.1 1.566-0.101 2.525-0.101zm163.58 0c7.04 0 10.61 1.755 12.92 4.06 2.97 2.957 4.03 7.067 4.03 10.776 0 5.162-2.32 9.022-4.18 10.826-3.12 3.108-5.93 4.059-12.67 4.059-3.98 0-4.13-0.702-4.13-2.756v-26.764c0.61-0.05 1.96-0.201 4.03-0.201zm-192.88 2.973l4.42 11.627h-8.689l4.269-11.627zm123.26 0l4.42 11.627h-8.68l4.26-11.627z" transform="matrix(.8 0 0 -.8 298.54 480.48)"/></g></svg>
